<svg xmlns="http://www.w3.org/2000/svg" xmlns:xlink="http://www.w3.org/1999/xlink" className="Icon" width="100%" viewBox="0 0 100 100">
  <title>Settings</title>
  <ellipse stroke-width="12" ry="21" rx="21" id="svg_5" cy="50" cx="50" fill="none" />
  <rect rx="2" id="svg_29" height="14" width="14" x="43" y="16" stroke-width="2" />
  <rect transform="rotate(45 50 50)" rx="2" id="svg_30" height="14" width="14" x="43" y="16" stroke-width="2" />
  <rect transform="rotate(90 50 50)" rx="2" id="svg_31" height="14" width="14" x="43" y="16" stroke-width="2" />
  <rect transform="rotate(135 50 50)" rx="2" id="svg_32" height="14" width="14" x="43" y="16" stroke-width="2" />
  <rect transform="rotate(180 50 50)" rx="2" id="svg_33" height="14" width="14" x="43" y="16" stroke-width="2" />
  <rect transform="rotate(225 50 50)" rx="2" id="svg_34" height="14" width="14" x="43" y="16" stroke-width="2" />
  <rect transform="rotate(270 50 50)" rx="2" id="svg_35" height="14" width="14" x="43" y="16" stroke-width="2" />
  <rect transform="rotate(315 50 50)" rx="2" id="svg_36" height="14" width="14" x="43" y="16" stroke-width="2" />
</svg>